<svg width="256" height="101" viewBox="0 0 256 101" fill="none" xmlns="http://www.w3.org/2000/svg">
<path d="M6.81818 69.7273H10.1818L18.0909 89.0455H18.3636L26.2727 69.7273H29.6364V93H27V75.3182H26.7727L19.5 93H16.9545L9.68182 75.3182H9.45455V93H6.81818V69.7273ZM57.6815 93H54.7269L63.2724 69.7273H66.1815L74.7269 93H71.7724L64.8178 73.4091H64.636L57.6815 93ZM58.7724 83.9091H70.6815V86.4091H58.7724V83.9091ZM118.246 69.7273V93H115.519L102.837 74.7273H102.61V93H99.7919V69.7273H102.519L115.246 88.0455H115.474V69.7273H118.246ZM148.144 69.7273V93H145.326V69.7273H148.144ZM176.189 93H173.234L181.78 69.7273H184.689L193.234 93H190.28L183.325 73.4091H183.144L176.189 93ZM177.28 83.9091H189.189V86.4091H177.28V83.9091Z" fill="#B3B3B3"/>
<path d="M34.9091 30.5C34.5909 29.3939 34.1439 28.4167 33.5682 27.5682C32.9924 26.7045 32.2879 25.9773 31.4545 25.3864C30.6364 24.7803 29.697 24.3182 28.6364 24C27.5909 23.6818 26.4318 23.5227 25.1591 23.5227C22.7803 23.5227 20.6894 24.1136 18.8864 25.2955C17.0985 26.4773 15.7045 28.197 14.7045 30.4545C13.7045 32.697 13.2045 35.4394 13.2045 38.6818C13.2045 41.9242 13.697 44.6818 14.6818 46.9545C15.6667 49.2273 17.0606 50.9621 18.8636 52.1591C20.6667 53.3409 22.7955 53.9318 25.25 53.9318C27.4773 53.9318 29.3788 53.5379 30.9545 52.75C32.5455 51.947 33.7576 50.8182 34.5909 49.3636C35.4394 47.9091 35.8636 46.1894 35.8636 44.2045L37.8636 44.5H25.8636V37.0909H45.3409V42.9545C45.3409 47.0455 44.4773 50.5606 42.75 53.5C41.0227 56.4242 38.6439 58.6818 35.6136 60.2727C32.5833 61.8485 29.1136 62.6364 25.2045 62.6364C20.8409 62.6364 17.0076 61.6742 13.7045 59.75C10.4015 57.8106 7.82576 55.0606 5.97727 51.5C4.14394 47.9242 3.22727 43.6818 3.22727 38.7727C3.22727 35 3.77273 31.6364 4.86364 28.6818C5.9697 25.7121 7.51515 23.197 9.5 21.1364C11.4848 19.0758 13.7955 17.5076 16.4318 16.4318C19.0682 15.3561 21.9242 14.8182 25 14.8182C27.6364 14.8182 30.0909 15.2045 32.3636 15.9773C34.6364 16.7348 36.6515 17.8106 38.4091 19.2045C40.1818 20.5985 41.6288 22.2576 42.75 24.1818C43.8712 26.0909 44.5909 28.197 44.9091 30.5H34.9091ZM59.3182 62H48.7727L64.8409 15.4545H77.5227L93.5682 62H83.0227L71.3636 26.0909H71L59.3182 62ZM58.6591 43.7045H83.5682V51.3864H58.6591V43.7045ZM99.1705 15.4545H111.307L124.125 46.7273H124.67L137.489 15.4545H149.625V62H140.08V31.7045H139.693L127.648 61.7727H121.148L109.102 31.5909H108.716V62H99.1705V15.4545ZM157.733 62V15.4545H189.097V23.5682H167.574V34.6591H187.483V42.7727H167.574V53.8864H189.188V62H157.733Z" fill="white"/>
</svg>
